<svg xmlns="http://www.w3.org/2000/svg" width="197.469" height="37.062" viewBox="0 0 197.469 37.062">
  <defs>
    <style>
      .cls-1 {
        fill: #00534c;
        fill-rule: evenodd;
      }
    </style>
  </defs>
  <path id="logo" class="cls-1" d="M180.767,124.05a6.225,6.225,0,0,0,3.852-2.844,17.984,17.984,0,0,0,2.128-6.012q0.325-1.691.634-4.079t0.569-5.054q0.26-2.664.487-5.281t0.39-4.729h11.148v27.755h7.8v-35.1H181.937q-0.26,4.485-.568,8.775t-0.715,8.06q-0.406,3.771-.927,6.663a16.75,16.75,0,0,1-.91,3.282,2.94,2.94,0,0,1-1.56,1.674,5.329,5.329,0,0,1-2.957.081v6.565A14.4,14.4,0,0,0,180.767,124.05Zm53.836-1.04a15.673,15.673,0,0,0,5.542-5.574l-1.138-1.235v7.605h6.858V102.259a42.112,42.112,0,0,0-.2-4.209,10.67,10.67,0,0,0-1.138-3.786,10.22,10.22,0,0,0-5.281-5,20.745,20.745,0,0,0-8.239-1.528q-6.207,0-9.864,2.7a13.261,13.261,0,0,0-4.956,7.15l7.15,2.243a6.131,6.131,0,0,1,3.088-3.8,10.127,10.127,0,0,1,4.582-1.1q3.933,0,5.59,1.722T238.227,102l2.795-1.593q-3.64.553-6.971,1.024t-6.175,1.024a42.808,42.808,0,0,0-4.956,1.235,13.855,13.855,0,0,0-4.55,2.421,9.13,9.13,0,0,0-2.6,3.51,11.773,11.773,0,0,0-.845,4.566,10.645,10.645,0,0,0,1.348,5.3,9.894,9.894,0,0,0,3.982,3.851,13.2,13.2,0,0,0,6.435,1.446A16.041,16.041,0,0,0,234.6,123.01Zm-9.457-5.054a4.455,4.455,0,0,1-1.9-1.576,4.077,4.077,0,0,1-.65-2.291,3.8,3.8,0,0,1,.5-1.983,4.855,4.855,0,0,1,1.447-1.495,9.959,9.959,0,0,1,2.307-1.137,29.933,29.933,0,0,1,3.218-.829q1.82-.373,4.355-0.8t6.077-.975l-2.405-.715q0,1.2-.081,3.136a10.034,10.034,0,0,1-.7,3.429,8.115,8.115,0,0,1-1.511,2.567A9.063,9.063,0,0,1,232.8,117.6a10.091,10.091,0,0,1-4.55.942A7.313,7.313,0,0,1,225.146,117.956Zm36.61,5.85V104.469l9.978,19.337h3.087l9.978-19.337v19.337h7.475v-35.1h-6.4l-12.61,24.245L260.684,88.706h-6.435v35.1h7.507Zm63.83-35.1-16.77,22.328V88.706h-7.507v35.1h6.272l16.7-22.912v22.912h7.508v-35.1h-6.208Zm40.5,33.2a15.079,15.079,0,0,0,5.687-8.239l-7.995-1.787a8.605,8.605,0,0,1-2.714,4.127,8.91,8.91,0,0,1-11.586-1.657,13.455,13.455,0,0,1-2.242-8.093,16.409,16.409,0,0,1,.942-5.752,7.883,7.883,0,0,1,7.963-5.428,7.838,7.838,0,0,1,4.81,1.576,8.6,8.6,0,0,1,3.022,4.4l7.8-2.112a13.839,13.839,0,0,0-5.411-8.206,16.781,16.781,0,0,0-10.124-3.006,17.15,17.15,0,0,0-9.2,2.389,15.96,15.96,0,0,0-5.964,6.565,21.333,21.333,0,0,0-2.129,9.571,21.782,21.782,0,0,0,2.064,9.49,15.788,15.788,0,0,0,5.866,6.614,17,17,0,0,0,9.263,2.421A16.776,16.776,0,0,0,366.081,121.905Z" transform="translate(-174.312 -87.719)"/>
</svg>
